<svg xmlns="http://www.w3.org/2000/svg" viewBox="0 0 1200 630" ><rect width="1200" height="630" fill="#f7f8f2"/><g transform="translate(74 62) scale(1.12)"><rect width="64" height="64" rx="16" fill="#245344"/><g fill="#eaf2cd"><path fill-rule="evenodd" d="M18 52V13h17c10 0 17 6 17 15s-7 15-17 15h-7v9zm10-30v13l13-6.5z"/></g><g transform="translate(87)" color="#19392f"><g fill="none" stroke="#19392f" stroke-width="5.8" stroke-linecap="round" stroke-linejoin="round"><path d="M8 51V13h17c17 0 17 24 0 24H8"/><path d="M53 28v23 M53 15v.1"/><path d="M89 30c-15-12-29 9-16 19 5 4 11 3 16 0"/><path d="M111 26c-18 0-18 27 0 27s18-27 0-27Z"/><path d="M139 51V13h16c17 0 17 24 0 24h-16m16 0 17 14"/><path d="M184 28v14c0 15 23 15 23 0V28m0 14v9"/><path d="M221 51V28m0 12c0-18 23-18 23 0v11"/><path d="M258 51V28m0 12c0-18 23-18 23 0v11"/><path d="M295 39h25c0-17-25-17-25 1 0 13 16 16 24 9"/><path d="M334 51V28m0 12c0-9 6-14 15-14"/></g></g></g><text x="74" y="315" fill="#19392f" font-family="Arial,sans-serif" font-size="78" font-weight="700">Good apps.</text><text x="74" y="408" fill="#245344" font-family="Arial,sans-serif" font-size="78" font-weight="700">Less setup.</text><text x="78" y="553" fill="#245344" font-family="Arial,sans-serif" font-size="26">A home for useful apps on your Mac.</text><g transform="translate(847 203) scale(4)" fill="#245344"><path fill-rule="evenodd" d="M18 52V13h17c10 0 17 6 17 15s-7 15-17 15h-7v9zm10-30v13l13-6.5z"/></g></svg>
